{"title":"Heimebane (2018) S01 E01 - 720p x264 - NOR (ENG SUBS) [BRSHNKV]","magnet":"magnet:?xt=urn:btih:69daf34102c26ed346bd75e4a27d4596ec3207cf&dn=Heimebane+%282018%29+S01+E01+-+720p+x264+-+NOR+%28ENG+SUBS%29+%5BBRSHNKV%5D&tr=udp%3A%2F%2Ftracker.leechers-paradise.org%3A6969&tr=udp%3A%2F%2Fzer0day.ch%3A1337&tr=udp%3A%2F%2Fopen.demonii.com%3A1337&tr=udp%3A%2F%2Ftracker.coppersurfer.tk%3A6969&tr=udp%3A%2F%2Fexodus.desync.com%3A6969","uploader":"BRSHNKV","categoryP":"video","categoryS":"hd___tv_shows","size":"615198524","seeders":"9","leechers":"6","description":" <a href=\"https://www.imdb.com/title/tt7766104/?ref_=rvi_tt\" rel=\"nofollow\" target=\"_NEW\">https://www.imdb.com/title/tt7766104/?ref_=rvi_tt</a>\r\n\r\n\r\n\r\n\r\nFormat : MPEG-4 \r\nFormat profile : Base Media / Version 2 \r\nCodec ID : mp42 \r\nFile size : 587 MiB \r\nDuration : 49mn 8s \r\nOverall bit rate mode : Variable \r\nOverall bit rate : 1 669 Kbps \r\nMovie name : Heimebane S01 E01 - 720p x264 [BRSHNKV] \r\nEncoded date : UTC 2018-04-15 15:15:57 \r\nTagged date : UTC 2018-04-15 15:15:57 \r\nWriting application : HandBrake 1.0.2 2017012200 \r\n\r\nVideo \r\nID : 1 \r\nFormat : AVC \r\nFormat/Info : Advanced Video Codec \r\nFormat profile : <a href=\"/cdn-cgi/l/email-protection\" class=\"__cf_email__\" data-cfemail=\"db96bab2b59b97ef\">[email&#xA0;protected]</a> \r\nFormat settings, CABAC : Yes \r\nFormat settings, ReFrames : 9 frames \r\nCodec ID : avc1 \r\nCodec ID/Info : Advanced Video Coding \r\nDuration : 49mn 8s \r\nBit rate : 1 500 Kbps \r\nWidth : 1 280 pixels \r\nHeight : 692 pixels \r\nDisplay aspect ratio : 1.85:1 \r\nFrame rate mode : Constant \r\nFrame rate : 25.000 fps \r\nColor space : YUV \r\nChroma subsampling : 4:2:0 \r\nBit depth : 8 bits \r\nScan type : Progressive \r\nBits/(Pixel*Frame) : 0.068 \r\nStream size : 527 MiB (90%) \r\nWriting library : x264 core 148 r2708 86b7198 \r\nEncoded date : UTC 2018-04-15 15:15:57 \r\nTagged date : UTC 2018-04-15 15:15:57 \r\nColor range : Limited \r\nColor primaries : BT.709 \r\nTransfer characteristics : BT.709 \r\nMatrix coefficients : BT.709 \r\n\r\nAudio \r\nID : 2 \r\nFormat : AAC \r\nFormat/Info : Advanced Audio Codec \r\nFormat profile : LC \r\nCodec ID : 40 \r\nDuration : 49mn 8s \r\nBit rate mode : Variable \r\nBit rate : 163 Kbps \r\nChannel(s) : 2 channels \r\nChannel positions : Front: L R \r\nSampling rate : 48.0 KHz \r\nCompression mode : Lossy \r\nStream size : 57.4 MiB (10%) \r\nTitle : Stereo / Stereo \r\nLanguage : Norwegian Bokmal \r\nEncoded date : UTC 2018-04-15 15:15:57 \r\nTagged date : UTC 2018-04-15 15:15:57","last_updated":"2018-04-17T12:55:09.240Z","parsed":{"xt":"urn:btih:69daf34102c26ed346bd75e4a27d4596ec3207cf","dn":"Heimebane (2018) S01 E01 - 720p x264 - NOR (ENG SUBS) [BRSHNKV]","tr":["udp://exodus.desync.com:6969","udp://open.demonii.com:1337","udp://tracker.coppersurfer.tk:6969","udp://tracker.leechers-paradise.org:6969","udp://zer0day.ch:1337"],"infoHash":"69daf34102c26ed346bd75e4a27d4596ec3207cf","infoHashBuffer":{"type":"Buffer","data":[105,218,243,65,2,194,110,211,70,189,117,228,162,125,69,150,236,50,7,207]},"name":"Heimebane (2018) S01 E01 - 720p x264 - NOR (ENG SUBS) [BRSHNKV]","announce":["udp://exodus.desync.com:6969","udp://open.demonii.com:1337","udp://tracker.coppersurfer.tk:6969","udp://tracker.leechers-paradise.org:6969","udp://zer0day.ch:1337"],"urlList":[]}}